<svg
  className="w-full"
  xmlns="http://www.w3.org/2000/svg"
  viewBox="0 0 300 85"
  preserveAspectRatio="xMidYMid meet"
>
  <g
    transform="translate(0,85) scale(0.1,-0.1)"
    fill={navColor}   // you can replace navColor with any variable or just a color string
    stroke="none"
  >
    <path d="M365 545 l0 -35 53 0 52 0 0 -150 0 -150 46 0 45 0 -3 150 -3 150 53
    0 52 0 0 35 0 35 -147 0 -148 0 0 -35z"/>
    <path d="M700 395 l0 -185 45 0 45 0 0 80 0 80 75 0 75 0 0 -80 0 -80 45 0 45
    0 0 185 0 185 -45 0 -45 0 0 -80 0 -80 -75 0 -75 0 0 80 0 80 -45 0 -45 0 0
    -185z m286 -11 c-5 -13 -10 -14 -18 -6 -6 6 -8 18 -4 28 5 13 10 14 18 6 6 -6
    8 -18 4 -28z"/>
    <path d="M1100 395 l0 -185 120 0 120 0 0 36 0 36 -77 -3 -78 -4 0 45 0 45 58
    -3 57 -4 0 36 0 36 -58 0 -58 0 1 42 1 41 77 -2 77 -2 0 35 0 36 -120 0 -120
    0 0 -185z m65 0 c0 -10 -6 -20 -12 -22 -8 -3 -13 5 -13 22 0 17 5 25 13 23 6
    -3 12 -13 12 -23z"/>
    <path d="M1595 566 c-66 -30 -105 -94 -105 -171 0 -78 40 -143 107 -171 45
    -19 131 -18 172 4 123 62 136 234 25 319 -30 23 -49 28 -103 30 -41 2 -77 -2
    -96 -11z m156 -85 c25 -26 29 -37 29 -86 0 -49 -4 -60 -29 -86 -61 -60 -160
    -28 -176 57 -21 113 99 192 176 115z"/>
    <path d="M1920 395 l0 -185 41 0 41 0 -3 120 c-2 65 -1 116 2 112 3 -4 45 -58
    94 -119 81 -104 91 -113 122 -113 l33 0 0 185 0 185 -41 0 -41 0 4 -120 c1
    -66 3 -120 2 -120 0 0 -43 54 -94 120 -86 110 -97 120 -127 120 l-33 0 0 -185z
    m76 70 c-23 -18 -36 -11 -36 19 0 34 11 39 34 16 21 -21 21 -21 2 -35z m204
    -160 c0 -26 -4 -33 -14 -29 -24 9 -29 37 -10 51 24 18 24 18 24 -22z"/>
    <path d="M2320 395 l0 -185 120 0 120 0 0 36 0 37 -80 -5 -80 -5 0 47 0 46 60
    -4 60 -4 0 36 0 36 -60 0 -60 0 0 40 0 40 80 0 80 0 0 35 0 35 -120 0 -120 0
    0 -185z m65 0 c0 -10 -6 -20 -12 -22 -8 -3 -13 5 -13 22 0 17 5 25 13 23 6 -3
    12 -13 12 -23z"/>
  </g>
</svg>
