<svg version="1.1" id="Layer_1" xmlns="http://www.w3.org/2000/svg" xmlns:xlink="http://www.w3.org/1999/xlink" x="0px" y="0px"
	 width="100%" viewBox="0 0 966 275" enable-background="new 0 0 966 275" xml:space="preserve">
<path fill="#FEFEFE" opacity="1.000000" stroke="none" 
	d="
M683.000000,276.000000 
	C455.333344,276.000000 228.166672,276.000000 1.000000,276.000000 
	C1.000000,184.333328 1.000000,92.666664 1.000000,1.000000 
	C323.000000,1.000000 645.000000,1.000000 967.000000,1.000000 
	C967.000000,92.666664 967.000000,184.333328 967.000000,276.000000 
	C872.500000,276.000000 778.000000,276.000000 683.000000,276.000000 
M479.810272,145.574646 
	C480.409973,151.844009 480.255615,158.298004 481.737946,164.351242 
	C488.695801,192.764526 512.543030,209.797302 543.777283,209.190414 
	C583.412476,208.420319 610.514160,174.341003 602.410461,135.461426 
	C596.532898,107.262138 575.499634,89.590019 545.265320,87.448265 
	C509.909637,84.943726 481.616180,109.665733 479.810272,145.574646 
M724.141968,182.500046 
	C724.141968,151.393509 724.141968,120.286957 724.141968,89.097214 
	C715.832825,89.097214 707.967163,89.097214 699.845825,89.097214 
	C699.845825,113.900764 699.845825,138.383179 699.845825,163.570312 
	C698.320068,161.715759 697.265625,160.475143 696.255188,159.199722 
	C679.091431,137.534821 661.993103,115.817474 644.685913,94.267799 
	C642.849792,91.981590 639.960754,89.535423 637.274170,89.148277 
	C631.770508,88.355186 626.072571,88.910294 620.326416,88.910294 
	C620.326416,128.710068 620.326416,168.244873 620.326416,207.654037 
	C628.517090,207.654037 636.407288,207.654037 644.285034,207.654037 
	C644.285034,182.748001 644.285034,158.188553 644.285034,132.839844 
	C645.759460,134.669174 646.771790,135.904785 647.762512,137.157425 
	C664.805542,158.705231 681.762268,180.322372 698.993042,201.718918 
	C701.129700,204.372253 704.502319,207.027191 707.684631,207.616638 
	C712.941528,208.590332 718.510132,207.881119 724.141968,207.881119 
	C724.141968,199.454407 724.141968,191.477234 724.141968,182.500046 
M304.079956,202.376251 
	C304.079956,204.148941 304.079956,205.921631 304.079956,207.701797 
	C313.668671,207.701797 322.725555,207.701797 331.771423,207.701797 
	C331.771423,167.988327 331.771423,128.577560 331.771423,89.055435 
	C322.511719,89.055435 313.466888,89.055435 303.901367,89.055435 
	C303.901367,105.707573 303.901367,122.081024 303.901367,138.322266 
	C287.626740,138.322266 271.877258,138.322266 255.695892,138.322266 
	C255.695892,121.788277 255.695892,105.535622 255.695892,89.059196 
	C246.223236,89.059196 237.187622,89.059196 228.043762,89.059196 
	C228.043762,128.751541 228.043762,168.154205 228.043762,207.717255 
	C237.268326,207.717255 246.313858,207.717255 255.884460,207.717255 
	C255.884460,190.885818 255.884460,174.333786 255.884460,157.823242 
	C272.168640,157.823242 287.924347,157.823242 304.079956,157.823242 
	C304.079956,172.493683 304.079956,186.948990 304.079956,202.376251 
M383.702271,110.050850 
	C399.647095,110.050850 415.591919,110.050850 431.693848,110.050850 
	C431.693848,102.754234 431.693848,96.004044 431.693848,89.043251 
	C406.106812,89.043251 380.731445,89.043251 355.223877,89.043251 
	C355.223877,128.731491 355.223877,168.150879 355.223877,207.733871 
	C380.804840,207.733871 406.191650,207.733871 431.674194,207.733871 
	C431.674194,200.713943 431.674194,193.962967 431.674194,186.722229 
	C415.382385,186.722229 399.313263,186.722229 383.238770,186.722229 
	C383.238770,176.992142 383.238770,167.757141 383.238770,158.003387 
	C395.770233,158.003387 407.998657,158.003387 420.035950,158.003387 
	C420.035950,151.047989 420.035950,144.620255 420.035950,137.701050 
	C407.534821,137.701050 395.302063,137.701050 382.994659,137.701050 
	C382.994659,128.370758 382.994659,119.542961 383.702271,110.050850 
M774.926697,115.586639 
	C774.926697,113.816673 774.926697,112.046707 774.926697,109.839920 
	C791.512512,109.839920 807.581177,109.839920 823.646851,109.839920 
	C823.646851,102.635437 823.646851,95.880997 823.646851,89.104233 
	C798.011780,89.104233 772.636475,89.104233 747.276978,89.104233 
	C747.276978,128.849197 747.276978,168.263977 747.276978,207.679535 
	C772.911133,207.679535 798.297424,207.679535 823.628418,207.679535 
	C823.628418,200.598801 823.628418,193.842896 823.628418,186.616226 
	C807.280701,186.616226 791.203857,186.616226 775.296265,186.616226 
	C775.296265,176.895798 775.296265,167.658798 775.296265,158.073563 
	C787.758484,158.073563 799.855347,158.073563 811.978271,158.073563 
	C811.978271,151.172760 811.978271,144.637695 811.978271,137.771576 
	C799.546875,137.771576 787.446960,137.771576 774.926697,137.771576 
	C774.926697,130.479904 774.926697,123.523033 774.926697,115.586639 
M180.130905,165.500046 
	C180.130905,147.387039 180.130905,129.274033 180.130905,110.528259 
	C191.602997,110.528259 202.638474,110.528259 213.560883,110.528259 
	C213.560883,102.954399 213.560883,96.020302 213.560883,89.101524 
	C181.911148,89.101524 150.547455,89.101524 119.194107,89.101524 
	C119.194107,96.364914 119.194107,103.297310 119.194107,110.719330 
	C130.311432,110.719330 141.219406,110.719330 152.646210,110.719330 
	C152.646210,143.404755 152.646210,175.602188 152.646210,207.709656 
	C162.103210,207.709656 171.024841,207.709656 180.130905,207.709656 
	C180.130905,193.778534 180.130905,180.139297 180.130905,165.500046 
z"/>
<path fill="#030303" opacity="1.000000" stroke="none" 
	d="
M479.829071,145.091385 
	C481.616180,109.665733 509.909637,84.943726 545.265320,87.448265 
	C575.499634,89.590019 596.532898,107.262138 602.410461,135.461426 
	C610.514160,174.341003 583.412476,208.420319 543.777283,209.190414 
	C512.543030,209.797302 488.695801,192.764526 481.737946,164.351242 
	C480.255615,158.298004 480.409973,151.844009 479.829071,145.091385 
M519.038757,178.502075 
	C539.067566,194.500900 567.018127,186.303146 573.511597,162.382889 
	C576.224854,152.387878 576.098389,142.237595 572.942871,132.332245 
	C569.269165,120.800400 561.620239,113.200279 549.503601,111.024109 
	C536.428650,108.675827 524.459961,110.872856 515.742859,121.923767 
	C504.140137,136.632828 505.655701,164.201691 519.038757,178.502075 
z"/>
<path fill="#010101" opacity="1.000000" stroke="none" 
	d="
M724.141968,183.000061 
	C724.141968,191.477234 724.141968,199.454407 724.141968,207.881119 
	C718.510132,207.881119 712.941528,208.590332 707.684631,207.616638 
	C704.502319,207.027191 701.129700,204.372253 698.993042,201.718918 
	C681.762268,180.322372 664.805542,158.705231 647.762512,137.157425 
	C646.771790,135.904785 645.759460,134.669174 644.285034,132.839844 
	C644.285034,158.188553 644.285034,182.748001 644.285034,207.654037 
	C636.407288,207.654037 628.517090,207.654037 620.326416,207.654037 
	C620.326416,168.244873 620.326416,128.710068 620.326416,88.910294 
	C626.072571,88.910294 631.770508,88.355186 637.274170,89.148277 
	C639.960754,89.535423 642.849792,91.981590 644.685913,94.267799 
	C661.993103,115.817474 679.091431,137.534821 696.255188,159.199722 
	C697.265625,160.475143 698.320068,161.715759 699.845825,163.570312 
	C699.845825,138.383179 699.845825,113.900764 699.845825,89.097214 
	C707.967163,89.097214 715.832825,89.097214 724.141968,89.097214 
	C724.141968,120.286957 724.141968,151.393509 724.141968,183.000061 
z"/>
<path fill="#030303" opacity="1.000000" stroke="none" 
	d="
M304.079956,201.890274 
	C304.079956,186.948990 304.079956,172.493683 304.079956,157.823242 
	C287.924347,157.823242 272.168640,157.823242 255.884460,157.823242 
	C255.884460,174.333786 255.884460,190.885818 255.884460,207.717255 
	C246.313858,207.717255 237.268326,207.717255 228.043762,207.717255 
	C228.043762,168.154205 228.043762,128.751541 228.043762,89.059196 
	C237.187622,89.059196 246.223236,89.059196 255.695892,89.059196 
	C255.695892,105.535622 255.695892,121.788277 255.695892,138.322266 
	C271.877258,138.322266 287.626740,138.322266 303.901367,138.322266 
	C303.901367,122.081024 303.901367,105.707573 303.901367,89.055435 
	C313.466888,89.055435 322.511719,89.055435 331.771423,89.055435 
	C331.771423,128.577560 331.771423,167.988327 331.771423,207.701797 
	C322.725555,207.701797 313.668671,207.701797 304.079956,207.701797 
	C304.079956,205.921631 304.079956,204.148941 304.079956,201.890274 
z"/>
<path fill="#010101" opacity="1.000000" stroke="none" 
	d="
M383.348450,110.383003 
	C382.994659,119.542961 382.994659,128.370758 382.994659,137.701050 
	C395.302063,137.701050 407.534821,137.701050 420.035950,137.701050 
	C420.035950,144.620255 420.035950,151.047989 420.035950,158.003387 
	C407.998657,158.003387 395.770233,158.003387 383.238770,158.003387 
	C383.238770,167.757141 383.238770,176.992142 383.238770,186.722229 
	C399.313263,186.722229 415.382385,186.722229 431.674194,186.722229 
	C431.674194,193.962967 431.674194,200.713943 431.674194,207.733871 
	C406.191650,207.733871 380.804840,207.733871 355.223877,207.733871 
	C355.223877,168.150879 355.223877,128.731491 355.223877,89.043251 
	C380.731445,89.043251 406.106812,89.043251 431.693848,89.043251 
	C431.693848,96.004044 431.693848,102.754234 431.693848,110.050850 
	C415.591919,110.050850 399.647095,110.050850 383.348450,110.383003 
z"/>
<path fill="#010101" opacity="1.000000" stroke="none" 
	d="
M774.926697,116.076401 
	C774.926697,123.523033 774.926697,130.479904 774.926697,137.771576 
	C787.446960,137.771576 799.546875,137.771576 811.978271,137.771576 
	C811.978271,144.637695 811.978271,151.172760 811.978271,158.073563 
	C799.855347,158.073563 787.758484,158.073563 775.296265,158.073563 
	C775.296265,167.658798 775.296265,176.895798 775.296265,186.616226 
	C791.203857,186.616226 807.280701,186.616226 823.628418,186.616226 
	C823.628418,193.842896 823.628418,200.598801 823.628418,207.679535 
	C798.297424,207.679535 772.911133,207.679535 747.276978,207.679535 
	C747.276978,168.263977 747.276978,128.849197 747.276978,89.104233 
	C772.636475,89.104233 798.011780,89.104233 823.646851,89.104233 
	C823.646851,95.880997 823.646851,102.635437 823.646851,109.839920 
	C807.581177,109.839920 791.512512,109.839920 774.926697,109.839920 
	C774.926697,112.046707 774.926697,113.816673 774.926697,116.076401 
z"/>
<path fill="#020202" opacity="1.000000" stroke="none" 
	d="
M180.130905,166.000061 
	C180.130905,180.139297 180.130905,193.778534 180.130905,207.709656 
	C171.024841,207.709656 162.103210,207.709656 152.646210,207.709656 
	C152.646210,175.602188 152.646210,143.404755 152.646210,110.719330 
	C141.219406,110.719330 130.311432,110.719330 119.194107,110.719330 
	C119.194107,103.297310 119.194107,96.364914 119.194107,89.101524 
	C150.547455,89.101524 181.911148,89.101524 213.560883,89.101524 
	C213.560883,96.020302 213.560883,102.954399 213.560883,110.528259 
	C202.638474,110.528259 191.602997,110.528259 180.130905,110.528259 
	C180.130905,129.274033 180.130905,147.387039 180.130905,166.000061 
z"/>
<path fill="#FDFDFD" opacity="1.000000" stroke="none" 
	d="
M518.784851,178.245529 
	C505.655701,164.201691 504.140137,136.632828 515.742859,121.923767 
	C524.459961,110.872856 536.428650,108.675827 549.503601,111.024109 
	C561.620239,113.200279 569.269165,120.800400 572.942871,132.332245 
	C576.098389,142.237595 576.224854,152.387878 573.511597,162.382889 
	C567.018127,186.303146 539.067566,194.500900 518.784851,178.245529 
z"/>
</svg>